<svg viewBox="0 0 61 30" fill="none" xmlns="http://www.w3.org/2000/svg">
<path d="M5.92 27H2.016V3.192H5.952V13.24C6.944 11.704 8.8 10.712 11.072 10.712C14.976 10.712 17.024 13.176 17.024 17.272V27H13.12V18.2C13.12 15.544 11.808 14.264 9.824 14.264C7.36 14.264 5.92 15.992 5.92 18.36V27ZM22.8118 8.024C21.4678 8.024 20.4118 6.968 20.4118 5.656C20.4118 4.344 21.4678 3.32 22.8118 3.32C24.0918 3.32 25.1478 4.344 25.1478 5.656C25.1478 6.968 24.0918 8.024 22.8118 8.024ZM20.8598 27V11.192H24.7638V27H20.8598ZM33.2773 27L27.0053 11.192H31.1653L33.9173 18.456C34.5893 20.344 35.1333 21.976 35.3253 22.84C35.5493 21.848 36.1253 20.184 36.7973 18.456L39.6773 11.192H43.7093L37.1173 27H33.2773ZM52.2443 27.416C47.5403 27.416 44.2443 23.992 44.2443 19.096C44.2443 14.136 47.4763 10.712 52.1163 10.712C56.8523 10.712 59.8603 13.88 59.8603 18.808V19.992L47.9563 20.024C48.2443 22.808 49.7163 24.216 52.3083 24.216C54.4523 24.216 55.8603 23.384 56.3083 21.88H59.9243C59.2523 25.336 56.3723 27.416 52.2443 27.416ZM52.1483 13.912C49.8443 13.912 48.4363 15.16 48.0523 17.528H55.9883C55.9883 15.352 54.4843 13.912 52.1483 13.912Z" fill="currentColor"/>
</svg>
